<mxfile host="app.diagrams.net" agent="Mozilla/5.0 (Windows NT 10.0; Win64; x64) AppleWebKit/537.36 (KHTML, like Gecko) Chrome/132.0.0.0 Safari/537.36" version="26.0.14">
  <diagram id="C5RBs43oDa-KdzZeNtuy" name="Page-1">
    <mxGraphModel dx="1562" dy="2013" grid="1" gridSize="10" guides="1" tooltips="1" connect="1" arrows="1" fold="1" page="1" pageScale="1" pageWidth="827" pageHeight="1169" math="0" shadow="0">
      <root>
        <mxCell id="WIyWlLk6GJQsqaUBKTNV-0" />
        <mxCell id="WIyWlLk6GJQsqaUBKTNV-1" parent="WIyWlLk6GJQsqaUBKTNV-0" />
        <mxCell id="6aQmox6azNYy8MR4txHE-4" style="edgeStyle=orthogonalEdgeStyle;rounded=0;orthogonalLoop=1;jettySize=auto;html=1;exitX=0.5;exitY=1;exitDx=0;exitDy=0;entryX=0.5;entryY=0;entryDx=0;entryDy=0;" edge="1" parent="WIyWlLk6GJQsqaUBKTNV-1" source="WIyWlLk6GJQsqaUBKTNV-3" target="6aQmox6azNYy8MR4txHE-0">
          <mxGeometry relative="1" as="geometry" />
        </mxCell>
        <mxCell id="WIyWlLk6GJQsqaUBKTNV-3" value="Start" style="rounded=1;whiteSpace=wrap;html=1;fontSize=12;glass=0;strokeWidth=1;shadow=0;fillColor=#d5e8d4;strokeColor=#82b366;" parent="WIyWlLk6GJQsqaUBKTNV-1" vertex="1">
          <mxGeometry x="160" y="80" width="120" height="40" as="geometry" />
        </mxCell>
        <mxCell id="6aQmox6azNYy8MR4txHE-13" style="edgeStyle=orthogonalEdgeStyle;rounded=0;orthogonalLoop=1;jettySize=auto;html=1;entryX=0;entryY=0.5;entryDx=0;entryDy=0;" edge="1" parent="WIyWlLk6GJQsqaUBKTNV-1" source="WIyWlLk6GJQsqaUBKTNV-6" target="WIyWlLk6GJQsqaUBKTNV-7">
          <mxGeometry relative="1" as="geometry" />
        </mxCell>
        <mxCell id="6aQmox6azNYy8MR4txHE-16" style="edgeStyle=orthogonalEdgeStyle;rounded=0;orthogonalLoop=1;jettySize=auto;html=1;entryX=0.5;entryY=0;entryDx=0;entryDy=0;" edge="1" parent="WIyWlLk6GJQsqaUBKTNV-1" source="WIyWlLk6GJQsqaUBKTNV-6" target="6aQmox6azNYy8MR4txHE-15">
          <mxGeometry relative="1" as="geometry" />
        </mxCell>
        <mxCell id="WIyWlLk6GJQsqaUBKTNV-6" value="Ți-ai uitat parola?" style="rhombus;whiteSpace=wrap;html=1;shadow=0;fontFamily=Helvetica;fontSize=12;align=center;strokeWidth=1;spacing=6;spacingTop=-4;fillColor=#fff2cc;strokeColor=#d6b656;" parent="WIyWlLk6GJQsqaUBKTNV-1" vertex="1">
          <mxGeometry x="200" y="490" width="120" height="80" as="geometry" />
        </mxCell>
        <mxCell id="6aQmox6azNYy8MR4txHE-14" style="edgeStyle=orthogonalEdgeStyle;rounded=0;orthogonalLoop=1;jettySize=auto;html=1;entryX=0.5;entryY=0;entryDx=0;entryDy=0;" edge="1" parent="WIyWlLk6GJQsqaUBKTNV-1" source="WIyWlLk6GJQsqaUBKTNV-7" target="WIyWlLk6GJQsqaUBKTNV-12">
          <mxGeometry relative="1" as="geometry" />
        </mxCell>
        <mxCell id="WIyWlLk6GJQsqaUBKTNV-7" value="Resetează parola" style="rounded=1;whiteSpace=wrap;html=1;fontSize=12;glass=0;strokeWidth=1;shadow=0;fillColor=#dae8fc;strokeColor=#6c8ebf;" parent="WIyWlLk6GJQsqaUBKTNV-1" vertex="1">
          <mxGeometry x="390" y="510" width="120" height="40" as="geometry" />
        </mxCell>
        <mxCell id="6aQmox6azNYy8MR4txHE-20" style="edgeStyle=orthogonalEdgeStyle;rounded=0;orthogonalLoop=1;jettySize=auto;html=1;" edge="1" parent="WIyWlLk6GJQsqaUBKTNV-1" source="WIyWlLk6GJQsqaUBKTNV-12" target="6aQmox6azNYy8MR4txHE-18">
          <mxGeometry relative="1" as="geometry" />
        </mxCell>
        <mxCell id="WIyWlLk6GJQsqaUBKTNV-12" value="Încearcă să te autentifici" style="rounded=1;whiteSpace=wrap;html=1;fontSize=12;glass=0;strokeWidth=1;shadow=0;fillColor=#dae8fc;strokeColor=#6c8ebf;" parent="WIyWlLk6GJQsqaUBKTNV-1" vertex="1">
          <mxGeometry x="390" y="680" width="120" height="40" as="geometry" />
        </mxCell>
        <mxCell id="6aQmox6azNYy8MR4txHE-3" style="edgeStyle=orthogonalEdgeStyle;rounded=0;orthogonalLoop=1;jettySize=auto;html=1;entryX=0;entryY=0.5;entryDx=0;entryDy=0;" edge="1" parent="WIyWlLk6GJQsqaUBKTNV-1" source="6aQmox6azNYy8MR4txHE-0" target="6aQmox6azNYy8MR4txHE-1">
          <mxGeometry relative="1" as="geometry" />
        </mxCell>
        <mxCell id="6aQmox6azNYy8MR4txHE-0" value="Ghid de utilizare" style="rounded=1;whiteSpace=wrap;html=1;fontSize=12;glass=0;strokeWidth=1;shadow=0;fillColor=#dae8fc;strokeColor=#6c8ebf;" vertex="1" parent="WIyWlLk6GJQsqaUBKTNV-1">
          <mxGeometry x="160" y="170" width="120" height="40" as="geometry" />
        </mxCell>
        <mxCell id="6aQmox6azNYy8MR4txHE-5" style="edgeStyle=orthogonalEdgeStyle;rounded=0;orthogonalLoop=1;jettySize=auto;html=1;entryX=0.5;entryY=0;entryDx=0;entryDy=0;" edge="1" parent="WIyWlLk6GJQsqaUBKTNV-1" source="6aQmox6azNYy8MR4txHE-1" target="6aQmox6azNYy8MR4txHE-2">
          <mxGeometry relative="1" as="geometry">
            <Array as="points">
              <mxPoint x="340" y="330" />
              <mxPoint x="260" y="330" />
            </Array>
          </mxGeometry>
        </mxCell>
        <mxCell id="6aQmox6azNYy8MR4txHE-1" value="Pagina de Login" style="rounded=1;whiteSpace=wrap;html=1;fontSize=12;glass=0;strokeWidth=1;shadow=0;fillColor=#dae8fc;strokeColor=#6c8ebf;" vertex="1" parent="WIyWlLk6GJQsqaUBKTNV-1">
          <mxGeometry x="280" y="260" width="120" height="40" as="geometry" />
        </mxCell>
        <mxCell id="6aQmox6azNYy8MR4txHE-6" style="edgeStyle=orthogonalEdgeStyle;rounded=0;orthogonalLoop=1;jettySize=auto;html=1;exitX=0.5;exitY=1;exitDx=0;exitDy=0;entryX=0.5;entryY=0;entryDx=0;entryDy=0;" edge="1" parent="WIyWlLk6GJQsqaUBKTNV-1" source="6aQmox6azNYy8MR4txHE-2" target="WIyWlLk6GJQsqaUBKTNV-6">
          <mxGeometry relative="1" as="geometry" />
        </mxCell>
        <mxCell id="6aQmox6azNYy8MR4txHE-8" style="edgeStyle=orthogonalEdgeStyle;rounded=0;orthogonalLoop=1;jettySize=auto;html=1;" edge="1" parent="WIyWlLk6GJQsqaUBKTNV-1" source="6aQmox6azNYy8MR4txHE-2" target="6aQmox6azNYy8MR4txHE-7">
          <mxGeometry relative="1" as="geometry" />
        </mxCell>
        <mxCell id="6aQmox6azNYy8MR4txHE-2" value="Ai deja un cont?" style="rhombus;whiteSpace=wrap;html=1;shadow=0;fontFamily=Helvetica;fontSize=12;align=center;strokeWidth=1;spacing=6;spacingTop=-4;fillColor=#fff2cc;strokeColor=#d6b656;" vertex="1" parent="WIyWlLk6GJQsqaUBKTNV-1">
          <mxGeometry x="200" y="350" width="120" height="80" as="geometry" />
        </mxCell>
        <mxCell id="6aQmox6azNYy8MR4txHE-12" style="edgeStyle=orthogonalEdgeStyle;rounded=0;orthogonalLoop=1;jettySize=auto;html=1;" edge="1" parent="WIyWlLk6GJQsqaUBKTNV-1" source="6aQmox6azNYy8MR4txHE-7" target="6aQmox6azNYy8MR4txHE-11">
          <mxGeometry relative="1" as="geometry" />
        </mxCell>
        <mxCell id="6aQmox6azNYy8MR4txHE-7" value="Du-te pe pagina de înregistrare" style="rounded=1;whiteSpace=wrap;html=1;fontSize=12;glass=0;strokeWidth=1;shadow=0;fillColor=#dae8fc;strokeColor=#6c8ebf;" vertex="1" parent="WIyWlLk6GJQsqaUBKTNV-1">
          <mxGeometry x="390" y="370" width="120" height="40" as="geometry" />
        </mxCell>
        <mxCell id="6aQmox6azNYy8MR4txHE-9" value="Nu" style="text;html=1;align=center;verticalAlign=middle;resizable=0;points=[];autosize=1;strokeColor=none;fillColor=none;" vertex="1" parent="WIyWlLk6GJQsqaUBKTNV-1">
          <mxGeometry x="330" y="358" width="40" height="30" as="geometry" />
        </mxCell>
        <mxCell id="6aQmox6azNYy8MR4txHE-10" value="Da" style="text;html=1;align=center;verticalAlign=middle;resizable=0;points=[];autosize=1;strokeColor=none;fillColor=none;" vertex="1" parent="WIyWlLk6GJQsqaUBKTNV-1">
          <mxGeometry x="260" y="448" width="40" height="30" as="geometry" />
        </mxCell>
        <mxCell id="6aQmox6azNYy8MR4txHE-27" style="edgeStyle=orthogonalEdgeStyle;rounded=0;orthogonalLoop=1;jettySize=auto;html=1;" edge="1" parent="WIyWlLk6GJQsqaUBKTNV-1" source="6aQmox6azNYy8MR4txHE-11">
          <mxGeometry relative="1" as="geometry">
            <mxPoint x="790" y="390" as="targetPoint" />
          </mxGeometry>
        </mxCell>
        <mxCell id="6aQmox6azNYy8MR4txHE-11" value="Completează câmpurile pentru înregistare" style="rounded=1;whiteSpace=wrap;html=1;fontSize=12;glass=0;strokeWidth=1;shadow=0;fillColor=#dae8fc;strokeColor=#6c8ebf;" vertex="1" parent="WIyWlLk6GJQsqaUBKTNV-1">
          <mxGeometry x="580" y="370" width="140" height="40" as="geometry" />
        </mxCell>
        <mxCell id="6aQmox6azNYy8MR4txHE-19" style="edgeStyle=orthogonalEdgeStyle;rounded=0;orthogonalLoop=1;jettySize=auto;html=1;" edge="1" parent="WIyWlLk6GJQsqaUBKTNV-1" source="6aQmox6azNYy8MR4txHE-15" target="6aQmox6azNYy8MR4txHE-18">
          <mxGeometry relative="1" as="geometry">
            <Array as="points">
              <mxPoint x="180" y="650" />
              <mxPoint x="180" y="700" />
            </Array>
          </mxGeometry>
        </mxCell>
        <mxCell id="6aQmox6azNYy8MR4txHE-15" value="Introdu datele de autentificare" style="rounded=1;whiteSpace=wrap;html=1;fontSize=12;glass=0;strokeWidth=1;shadow=0;fillColor=#dae8fc;strokeColor=#6c8ebf;" vertex="1" parent="WIyWlLk6GJQsqaUBKTNV-1">
          <mxGeometry x="200" y="630" width="120" height="40" as="geometry" />
        </mxCell>
        <mxCell id="6aQmox6azNYy8MR4txHE-17" value="Nu" style="text;html=1;align=center;verticalAlign=middle;resizable=0;points=[];autosize=1;strokeColor=none;fillColor=none;" vertex="1" parent="WIyWlLk6GJQsqaUBKTNV-1">
          <mxGeometry x="260" y="584.5" width="40" height="30" as="geometry" />
        </mxCell>
        <mxCell id="6aQmox6azNYy8MR4txHE-22" style="edgeStyle=orthogonalEdgeStyle;rounded=0;orthogonalLoop=1;jettySize=auto;html=1;exitX=0.5;exitY=1;exitDx=0;exitDy=0;entryX=0.5;entryY=0;entryDx=0;entryDy=0;" edge="1" parent="WIyWlLk6GJQsqaUBKTNV-1" source="6aQmox6azNYy8MR4txHE-18" target="6aQmox6azNYy8MR4txHE-21">
          <mxGeometry relative="1" as="geometry" />
        </mxCell>
        <mxCell id="6aQmox6azNYy8MR4txHE-24" style="edgeStyle=orthogonalEdgeStyle;rounded=0;orthogonalLoop=1;jettySize=auto;html=1;exitX=0.5;exitY=0;exitDx=0;exitDy=0;entryX=0;entryY=1;entryDx=0;entryDy=0;" edge="1" parent="WIyWlLk6GJQsqaUBKTNV-1" source="6aQmox6azNYy8MR4txHE-18" target="6aQmox6azNYy8MR4txHE-1">
          <mxGeometry relative="1" as="geometry">
            <Array as="points">
              <mxPoint x="100" y="320" />
              <mxPoint x="280" y="320" />
            </Array>
          </mxGeometry>
        </mxCell>
        <mxCell id="6aQmox6azNYy8MR4txHE-18" value="Datele sunt corecte?" style="rhombus;whiteSpace=wrap;html=1;shadow=0;fontFamily=Helvetica;fontSize=12;align=center;strokeWidth=1;spacing=6;spacingTop=-4;fillColor=#fff2cc;strokeColor=#d6b656;" vertex="1" parent="WIyWlLk6GJQsqaUBKTNV-1">
          <mxGeometry x="40" y="660" width="120" height="80" as="geometry" />
        </mxCell>
        <mxCell id="6aQmox6azNYy8MR4txHE-21" value="Sfârșit" style="rounded=1;whiteSpace=wrap;html=1;fontSize=12;glass=0;strokeWidth=1;shadow=0;fillColor=#f8cecc;strokeColor=#b85450;" vertex="1" parent="WIyWlLk6GJQsqaUBKTNV-1">
          <mxGeometry x="40" y="790" width="120" height="40" as="geometry" />
        </mxCell>
        <mxCell id="6aQmox6azNYy8MR4txHE-23" value="Da" style="text;html=1;align=center;verticalAlign=middle;resizable=0;points=[];autosize=1;strokeColor=none;fillColor=none;" vertex="1" parent="WIyWlLk6GJQsqaUBKTNV-1">
          <mxGeometry x="60" y="740" width="40" height="30" as="geometry" />
        </mxCell>
        <mxCell id="6aQmox6azNYy8MR4txHE-25" value="Nu" style="text;html=1;align=center;verticalAlign=middle;resizable=0;points=[];autosize=1;strokeColor=none;fillColor=none;" vertex="1" parent="WIyWlLk6GJQsqaUBKTNV-1">
          <mxGeometry x="60" y="460" width="40" height="30" as="geometry" />
        </mxCell>
        <mxCell id="6aQmox6azNYy8MR4txHE-32" style="edgeStyle=orthogonalEdgeStyle;rounded=0;orthogonalLoop=1;jettySize=auto;html=1;entryX=1;entryY=0.5;entryDx=0;entryDy=0;" edge="1" parent="WIyWlLk6GJQsqaUBKTNV-1" source="6aQmox6azNYy8MR4txHE-28" target="6aQmox6azNYy8MR4txHE-31">
          <mxGeometry relative="1" as="geometry">
            <Array as="points">
              <mxPoint x="940" y="390" />
              <mxPoint x="940" y="530" />
            </Array>
          </mxGeometry>
        </mxCell>
        <mxCell id="6aQmox6azNYy8MR4txHE-37" style="edgeStyle=orthogonalEdgeStyle;rounded=0;orthogonalLoop=1;jettySize=auto;html=1;" edge="1" parent="WIyWlLk6GJQsqaUBKTNV-1" source="6aQmox6azNYy8MR4txHE-28" target="6aQmox6azNYy8MR4txHE-35">
          <mxGeometry relative="1" as="geometry">
            <Array as="points">
              <mxPoint x="850" y="210" />
              <mxPoint x="980" y="210" />
              <mxPoint x="980" y="470" />
            </Array>
          </mxGeometry>
        </mxCell>
        <mxCell id="6aQmox6azNYy8MR4txHE-28" value="Numele introdus este gol?" style="rhombus;whiteSpace=wrap;html=1;shadow=0;fontFamily=Helvetica;fontSize=12;align=center;strokeWidth=1;spacing=6;spacingTop=-4;fillColor=#fff2cc;strokeColor=#d6b656;" vertex="1" parent="WIyWlLk6GJQsqaUBKTNV-1">
          <mxGeometry x="790" y="350" width="120" height="80" as="geometry" />
        </mxCell>
        <mxCell id="6aQmox6azNYy8MR4txHE-33" style="edgeStyle=orthogonalEdgeStyle;rounded=0;orthogonalLoop=1;jettySize=auto;html=1;entryX=0.5;entryY=1;entryDx=0;entryDy=0;" edge="1" parent="WIyWlLk6GJQsqaUBKTNV-1" source="6aQmox6azNYy8MR4txHE-31" target="6aQmox6azNYy8MR4txHE-28">
          <mxGeometry relative="1" as="geometry" />
        </mxCell>
        <mxCell id="6aQmox6azNYy8MR4txHE-31" value="Introdu un nume care nu este gol" style="rounded=1;whiteSpace=wrap;html=1;fontSize=12;glass=0;strokeWidth=1;shadow=0;fillColor=#dae8fc;strokeColor=#6c8ebf;" vertex="1" parent="WIyWlLk6GJQsqaUBKTNV-1">
          <mxGeometry x="780" y="510" width="140" height="40" as="geometry" />
        </mxCell>
        <mxCell id="6aQmox6azNYy8MR4txHE-34" value="Da" style="text;html=1;align=center;verticalAlign=middle;resizable=0;points=[];autosize=1;strokeColor=none;fillColor=none;" vertex="1" parent="WIyWlLk6GJQsqaUBKTNV-1">
          <mxGeometry x="900" y="448" width="40" height="30" as="geometry" />
        </mxCell>
        <mxCell id="6aQmox6azNYy8MR4txHE-41" style="edgeStyle=orthogonalEdgeStyle;rounded=0;orthogonalLoop=1;jettySize=auto;html=1;entryX=0;entryY=0.5;entryDx=0;entryDy=0;" edge="1" parent="WIyWlLk6GJQsqaUBKTNV-1" source="6aQmox6azNYy8MR4txHE-35" target="6aQmox6azNYy8MR4txHE-40">
          <mxGeometry relative="1" as="geometry" />
        </mxCell>
        <mxCell id="6aQmox6azNYy8MR4txHE-45" style="edgeStyle=orthogonalEdgeStyle;rounded=0;orthogonalLoop=1;jettySize=auto;html=1;entryX=0.5;entryY=1;entryDx=0;entryDy=0;" edge="1" parent="WIyWlLk6GJQsqaUBKTNV-1" source="6aQmox6azNYy8MR4txHE-35" target="6aQmox6azNYy8MR4txHE-44">
          <mxGeometry relative="1" as="geometry" />
        </mxCell>
        <mxCell id="6aQmox6azNYy8MR4txHE-35" value="Adresa de mail respectă formatul?" style="rhombus;whiteSpace=wrap;html=1;shadow=0;fontFamily=Helvetica;fontSize=12;align=center;strokeWidth=1;spacing=6;spacingTop=-4;fillColor=#fff2cc;strokeColor=#d6b656;" vertex="1" parent="WIyWlLk6GJQsqaUBKTNV-1">
          <mxGeometry x="1030" y="430" width="130" height="80" as="geometry" />
        </mxCell>
        <mxCell id="6aQmox6azNYy8MR4txHE-38" value="Nu" style="text;html=1;align=center;verticalAlign=middle;resizable=0;points=[];autosize=1;strokeColor=none;fillColor=none;" vertex="1" parent="WIyWlLk6GJQsqaUBKTNV-1">
          <mxGeometry x="980" y="358" width="40" height="30" as="geometry" />
        </mxCell>
        <mxCell id="6aQmox6azNYy8MR4txHE-42" style="edgeStyle=orthogonalEdgeStyle;rounded=0;orthogonalLoop=1;jettySize=auto;html=1;entryX=0.5;entryY=1;entryDx=0;entryDy=0;" edge="1" parent="WIyWlLk6GJQsqaUBKTNV-1" source="6aQmox6azNYy8MR4txHE-40" target="6aQmox6azNYy8MR4txHE-35">
          <mxGeometry relative="1" as="geometry">
            <Array as="points">
              <mxPoint x="1280" y="550" />
              <mxPoint x="1095" y="550" />
            </Array>
          </mxGeometry>
        </mxCell>
        <mxCell id="6aQmox6azNYy8MR4txHE-40" value="Introdu o adresă de mail care respectă formatul" style="rounded=1;whiteSpace=wrap;html=1;fontSize=12;glass=0;strokeWidth=1;shadow=0;fillColor=#dae8fc;strokeColor=#6c8ebf;" vertex="1" parent="WIyWlLk6GJQsqaUBKTNV-1">
          <mxGeometry x="1230" y="450" width="140" height="40" as="geometry" />
        </mxCell>
        <mxCell id="6aQmox6azNYy8MR4txHE-43" value="Nu" style="text;html=1;align=center;verticalAlign=middle;resizable=0;points=[];autosize=1;strokeColor=none;fillColor=none;" vertex="1" parent="WIyWlLk6GJQsqaUBKTNV-1">
          <mxGeometry x="1170" y="438" width="40" height="30" as="geometry" />
        </mxCell>
        <mxCell id="6aQmox6azNYy8MR4txHE-47" style="edgeStyle=orthogonalEdgeStyle;rounded=0;orthogonalLoop=1;jettySize=auto;html=1;entryX=0;entryY=0.5;entryDx=0;entryDy=0;" edge="1" parent="WIyWlLk6GJQsqaUBKTNV-1" source="6aQmox6azNYy8MR4txHE-44" target="6aQmox6azNYy8MR4txHE-46">
          <mxGeometry relative="1" as="geometry" />
        </mxCell>
        <mxCell id="6aQmox6azNYy8MR4txHE-58" style="edgeStyle=orthogonalEdgeStyle;rounded=0;orthogonalLoop=1;jettySize=auto;html=1;exitX=0.5;exitY=0;exitDx=0;exitDy=0;entryX=0.5;entryY=1;entryDx=0;entryDy=0;" edge="1" parent="WIyWlLk6GJQsqaUBKTNV-1" source="6aQmox6azNYy8MR4txHE-44" target="6aQmox6azNYy8MR4txHE-57">
          <mxGeometry relative="1" as="geometry" />
        </mxCell>
        <mxCell id="6aQmox6azNYy8MR4txHE-44" value="Numărul de telefon respectă formatul?" style="rhombus;whiteSpace=wrap;html=1;shadow=0;fontFamily=Helvetica;fontSize=12;align=center;strokeWidth=1;spacing=6;spacingTop=-4;fillColor=#fff2cc;strokeColor=#d6b656;" vertex="1" parent="WIyWlLk6GJQsqaUBKTNV-1">
          <mxGeometry x="1030" y="268" width="130" height="90" as="geometry" />
        </mxCell>
        <mxCell id="6aQmox6azNYy8MR4txHE-55" style="edgeStyle=orthogonalEdgeStyle;rounded=0;orthogonalLoop=1;jettySize=auto;html=1;entryX=0.5;entryY=1;entryDx=0;entryDy=0;" edge="1" parent="WIyWlLk6GJQsqaUBKTNV-1" source="6aQmox6azNYy8MR4txHE-46" target="6aQmox6azNYy8MR4txHE-44">
          <mxGeometry relative="1" as="geometry">
            <Array as="points">
              <mxPoint x="1280" y="380" />
              <mxPoint x="1095" y="380" />
            </Array>
          </mxGeometry>
        </mxCell>
        <mxCell id="6aQmox6azNYy8MR4txHE-46" value="Introdu un număr de telefon care respectă formatul" style="rounded=1;whiteSpace=wrap;html=1;fontSize=12;glass=0;strokeWidth=1;shadow=0;fillColor=#dae8fc;strokeColor=#6c8ebf;" vertex="1" parent="WIyWlLk6GJQsqaUBKTNV-1">
          <mxGeometry x="1220" y="293" width="160" height="40" as="geometry" />
        </mxCell>
        <mxCell id="6aQmox6azNYy8MR4txHE-48" value="Nu" style="text;html=1;align=center;verticalAlign=middle;resizable=0;points=[];autosize=1;strokeColor=none;fillColor=none;" vertex="1" parent="WIyWlLk6GJQsqaUBKTNV-1">
          <mxGeometry x="1170" y="280" width="40" height="30" as="geometry" />
        </mxCell>
        <mxCell id="6aQmox6azNYy8MR4txHE-56" value="Da" style="text;html=1;align=center;verticalAlign=middle;resizable=0;points=[];autosize=1;strokeColor=none;fillColor=none;" vertex="1" parent="WIyWlLk6GJQsqaUBKTNV-1">
          <mxGeometry x="1090" y="400" width="40" height="30" as="geometry" />
        </mxCell>
        <mxCell id="6aQmox6azNYy8MR4txHE-60" style="edgeStyle=orthogonalEdgeStyle;rounded=0;orthogonalLoop=1;jettySize=auto;html=1;" edge="1" parent="WIyWlLk6GJQsqaUBKTNV-1" source="6aQmox6azNYy8MR4txHE-57" target="6aQmox6azNYy8MR4txHE-59">
          <mxGeometry relative="1" as="geometry" />
        </mxCell>
        <mxCell id="6aQmox6azNYy8MR4txHE-65" style="edgeStyle=orthogonalEdgeStyle;rounded=0;orthogonalLoop=1;jettySize=auto;html=1;entryX=0.5;entryY=1;entryDx=0;entryDy=0;" edge="1" parent="WIyWlLk6GJQsqaUBKTNV-1" source="6aQmox6azNYy8MR4txHE-57" target="6aQmox6azNYy8MR4txHE-64">
          <mxGeometry relative="1" as="geometry" />
        </mxCell>
        <mxCell id="6aQmox6azNYy8MR4txHE-57" value="Anul nașterii respectă formatul?" style="rhombus;whiteSpace=wrap;html=1;shadow=0;fontFamily=Helvetica;fontSize=12;align=center;strokeWidth=1;spacing=6;spacingTop=-4;fillColor=#fff2cc;strokeColor=#d6b656;" vertex="1" parent="WIyWlLk6GJQsqaUBKTNV-1">
          <mxGeometry x="1035" y="108" width="120" height="90" as="geometry" />
        </mxCell>
        <mxCell id="6aQmox6azNYy8MR4txHE-62" style="edgeStyle=orthogonalEdgeStyle;rounded=0;orthogonalLoop=1;jettySize=auto;html=1;entryX=0.5;entryY=1;entryDx=0;entryDy=0;" edge="1" parent="WIyWlLk6GJQsqaUBKTNV-1" source="6aQmox6azNYy8MR4txHE-59" target="6aQmox6azNYy8MR4txHE-57">
          <mxGeometry relative="1" as="geometry">
            <Array as="points">
              <mxPoint x="1290" y="220" />
              <mxPoint x="1095" y="220" />
            </Array>
          </mxGeometry>
        </mxCell>
        <mxCell id="6aQmox6azNYy8MR4txHE-59" value="Introdu un an de naștere care respectă formatul" style="rounded=1;whiteSpace=wrap;html=1;fontSize=12;glass=0;strokeWidth=1;shadow=0;fillColor=#dae8fc;strokeColor=#6c8ebf;" vertex="1" parent="WIyWlLk6GJQsqaUBKTNV-1">
          <mxGeometry x="1220" y="133" width="160" height="40" as="geometry" />
        </mxCell>
        <mxCell id="6aQmox6azNYy8MR4txHE-61" value="Nu" style="text;html=1;align=center;verticalAlign=middle;resizable=0;points=[];autosize=1;strokeColor=none;fillColor=none;" vertex="1" parent="WIyWlLk6GJQsqaUBKTNV-1">
          <mxGeometry x="1160" y="120" width="40" height="30" as="geometry" />
        </mxCell>
        <mxCell id="6aQmox6azNYy8MR4txHE-63" value="Da" style="text;html=1;align=center;verticalAlign=middle;resizable=0;points=[];autosize=1;strokeColor=none;fillColor=none;" vertex="1" parent="WIyWlLk6GJQsqaUBKTNV-1">
          <mxGeometry x="1090" y="238" width="40" height="30" as="geometry" />
        </mxCell>
        <mxCell id="6aQmox6azNYy8MR4txHE-67" style="edgeStyle=orthogonalEdgeStyle;rounded=0;orthogonalLoop=1;jettySize=auto;html=1;exitX=1;exitY=0.5;exitDx=0;exitDy=0;entryX=0;entryY=0.5;entryDx=0;entryDy=0;" edge="1" parent="WIyWlLk6GJQsqaUBKTNV-1" source="6aQmox6azNYy8MR4txHE-64" target="6aQmox6azNYy8MR4txHE-66">
          <mxGeometry relative="1" as="geometry" />
        </mxCell>
        <mxCell id="6aQmox6azNYy8MR4txHE-72" style="edgeStyle=orthogonalEdgeStyle;rounded=0;orthogonalLoop=1;jettySize=auto;html=1;exitX=0.5;exitY=0;exitDx=0;exitDy=0;entryX=0.5;entryY=1;entryDx=0;entryDy=0;" edge="1" parent="WIyWlLk6GJQsqaUBKTNV-1" source="6aQmox6azNYy8MR4txHE-64" target="6aQmox6azNYy8MR4txHE-71">
          <mxGeometry relative="1" as="geometry" />
        </mxCell>
        <mxCell id="6aQmox6azNYy8MR4txHE-64" value="Parola introdusă respectă cerințele" style="rhombus;whiteSpace=wrap;html=1;shadow=0;fontFamily=Helvetica;fontSize=12;align=center;strokeWidth=1;spacing=6;spacingTop=-4;fillColor=#fff2cc;strokeColor=#d6b656;" vertex="1" parent="WIyWlLk6GJQsqaUBKTNV-1">
          <mxGeometry x="1035" y="-55" width="120" height="90" as="geometry" />
        </mxCell>
        <mxCell id="6aQmox6azNYy8MR4txHE-69" style="edgeStyle=orthogonalEdgeStyle;rounded=0;orthogonalLoop=1;jettySize=auto;html=1;entryX=0.5;entryY=1;entryDx=0;entryDy=0;" edge="1" parent="WIyWlLk6GJQsqaUBKTNV-1" source="6aQmox6azNYy8MR4txHE-66" target="6aQmox6azNYy8MR4txHE-64">
          <mxGeometry relative="1" as="geometry">
            <Array as="points">
              <mxPoint x="1290" y="60" />
              <mxPoint x="1095" y="60" />
            </Array>
          </mxGeometry>
        </mxCell>
        <mxCell id="6aQmox6azNYy8MR4txHE-66" value="Introdu din nou o parolă care respectă cerințele" style="rounded=1;whiteSpace=wrap;html=1;fontSize=12;glass=0;strokeWidth=1;shadow=0;fillColor=#dae8fc;strokeColor=#6c8ebf;" vertex="1" parent="WIyWlLk6GJQsqaUBKTNV-1">
          <mxGeometry x="1241" y="-30" width="160" height="40" as="geometry" />
        </mxCell>
        <mxCell id="6aQmox6azNYy8MR4txHE-68" value="Nu" style="text;html=1;align=center;verticalAlign=middle;resizable=0;points=[];autosize=1;strokeColor=none;fillColor=none;" vertex="1" parent="WIyWlLk6GJQsqaUBKTNV-1">
          <mxGeometry x="1180" y="-40" width="40" height="30" as="geometry" />
        </mxCell>
        <mxCell id="6aQmox6azNYy8MR4txHE-70" value="Da" style="text;html=1;align=center;verticalAlign=middle;resizable=0;points=[];autosize=1;strokeColor=none;fillColor=none;" vertex="1" parent="WIyWlLk6GJQsqaUBKTNV-1">
          <mxGeometry x="1090" y="78" width="40" height="30" as="geometry" />
        </mxCell>
        <mxCell id="6aQmox6azNYy8MR4txHE-74" style="edgeStyle=orthogonalEdgeStyle;rounded=0;orthogonalLoop=1;jettySize=auto;html=1;entryX=0;entryY=0.5;entryDx=0;entryDy=0;" edge="1" parent="WIyWlLk6GJQsqaUBKTNV-1" source="6aQmox6azNYy8MR4txHE-71" target="6aQmox6azNYy8MR4txHE-73">
          <mxGeometry relative="1" as="geometry" />
        </mxCell>
        <mxCell id="6aQmox6azNYy8MR4txHE-81" style="edgeStyle=orthogonalEdgeStyle;rounded=0;orthogonalLoop=1;jettySize=auto;html=1;exitX=0.5;exitY=0;exitDx=0;exitDy=0;entryX=0.5;entryY=1;entryDx=0;entryDy=0;" edge="1" parent="WIyWlLk6GJQsqaUBKTNV-1" source="6aQmox6azNYy8MR4txHE-71" target="6aQmox6azNYy8MR4txHE-80">
          <mxGeometry relative="1" as="geometry" />
        </mxCell>
        <mxCell id="6aQmox6azNYy8MR4txHE-71" value="Parola introdusă respectă cerințele" style="rhombus;whiteSpace=wrap;html=1;shadow=0;fontFamily=Helvetica;fontSize=12;align=center;strokeWidth=1;spacing=6;spacingTop=-4;fillColor=#fff2cc;strokeColor=#d6b656;" vertex="1" parent="WIyWlLk6GJQsqaUBKTNV-1">
          <mxGeometry x="1035" y="-210" width="120" height="90" as="geometry" />
        </mxCell>
        <mxCell id="6aQmox6azNYy8MR4txHE-75" style="edgeStyle=orthogonalEdgeStyle;rounded=0;orthogonalLoop=1;jettySize=auto;html=1;entryX=0.5;entryY=1;entryDx=0;entryDy=0;" edge="1" parent="WIyWlLk6GJQsqaUBKTNV-1" source="6aQmox6azNYy8MR4txHE-73" target="6aQmox6azNYy8MR4txHE-71">
          <mxGeometry relative="1" as="geometry">
            <Array as="points">
              <mxPoint x="1310" y="-100" />
              <mxPoint x="1095" y="-100" />
            </Array>
          </mxGeometry>
        </mxCell>
        <mxCell id="6aQmox6azNYy8MR4txHE-73" value="Scrie din nou parolele" style="rounded=1;whiteSpace=wrap;html=1;fontSize=12;glass=0;strokeWidth=1;shadow=0;fillColor=#dae8fc;strokeColor=#6c8ebf;" vertex="1" parent="WIyWlLk6GJQsqaUBKTNV-1">
          <mxGeometry x="1241" y="-185" width="160" height="40" as="geometry" />
        </mxCell>
        <mxCell id="6aQmox6azNYy8MR4txHE-76" value="Nu" style="text;html=1;align=center;verticalAlign=middle;resizable=0;points=[];autosize=1;strokeColor=none;fillColor=none;" vertex="1" parent="WIyWlLk6GJQsqaUBKTNV-1">
          <mxGeometry x="1180" y="-192" width="40" height="30" as="geometry" />
        </mxCell>
        <mxCell id="6aQmox6azNYy8MR4txHE-79" value="Da" style="text;html=1;align=center;verticalAlign=middle;resizable=0;points=[];autosize=1;strokeColor=none;fillColor=none;" vertex="1" parent="WIyWlLk6GJQsqaUBKTNV-1">
          <mxGeometry x="1090" y="-85" width="40" height="30" as="geometry" />
        </mxCell>
        <mxCell id="6aQmox6azNYy8MR4txHE-84" style="edgeStyle=orthogonalEdgeStyle;rounded=0;orthogonalLoop=1;jettySize=auto;html=1;entryX=1;entryY=0.5;entryDx=0;entryDy=0;" edge="1" parent="WIyWlLk6GJQsqaUBKTNV-1" source="6aQmox6azNYy8MR4txHE-80" target="6aQmox6azNYy8MR4txHE-83">
          <mxGeometry relative="1" as="geometry" />
        </mxCell>
        <mxCell id="6aQmox6azNYy8MR4txHE-80" value="Înregistare" style="rounded=1;whiteSpace=wrap;html=1;fontSize=12;glass=0;strokeWidth=1;shadow=0;fillColor=#dae8fc;strokeColor=#6c8ebf;" vertex="1" parent="WIyWlLk6GJQsqaUBKTNV-1">
          <mxGeometry x="1015" y="-330" width="160" height="40" as="geometry" />
        </mxCell>
        <mxCell id="6aQmox6azNYy8MR4txHE-82" value="Da" style="text;html=1;align=center;verticalAlign=middle;resizable=0;points=[];autosize=1;strokeColor=none;fillColor=none;" vertex="1" parent="WIyWlLk6GJQsqaUBKTNV-1">
          <mxGeometry x="1090" y="-260" width="40" height="30" as="geometry" />
        </mxCell>
        <mxCell id="6aQmox6azNYy8MR4txHE-86" style="edgeStyle=orthogonalEdgeStyle;rounded=0;orthogonalLoop=1;jettySize=auto;html=1;" edge="1" parent="WIyWlLk6GJQsqaUBKTNV-1" source="6aQmox6azNYy8MR4txHE-83" target="6aQmox6azNYy8MR4txHE-85">
          <mxGeometry relative="1" as="geometry" />
        </mxCell>
        <mxCell id="6aQmox6azNYy8MR4txHE-83" value="Inserare utilizator în baza de date" style="rounded=1;whiteSpace=wrap;html=1;fontSize=12;glass=0;strokeWidth=1;shadow=0;fillColor=#dae8fc;strokeColor=#6c8ebf;" vertex="1" parent="WIyWlLk6GJQsqaUBKTNV-1">
          <mxGeometry x="770" y="-330" width="150" height="40" as="geometry" />
        </mxCell>
        <mxCell id="6aQmox6azNYy8MR4txHE-91" style="edgeStyle=orthogonalEdgeStyle;rounded=0;orthogonalLoop=1;jettySize=auto;html=1;entryX=0.5;entryY=0;entryDx=0;entryDy=0;" edge="1" parent="WIyWlLk6GJQsqaUBKTNV-1" source="6aQmox6azNYy8MR4txHE-85" target="6aQmox6azNYy8MR4txHE-88">
          <mxGeometry relative="1" as="geometry">
            <Array as="points">
              <mxPoint x="630" y="-220" />
              <mxPoint x="645" y="-220" />
            </Array>
          </mxGeometry>
        </mxCell>
        <mxCell id="6aQmox6azNYy8MR4txHE-92" style="edgeStyle=orthogonalEdgeStyle;rounded=0;orthogonalLoop=1;jettySize=auto;html=1;exitX=0.5;exitY=1;exitDx=0;exitDy=0;entryX=0.5;entryY=0;entryDx=0;entryDy=0;" edge="1" parent="WIyWlLk6GJQsqaUBKTNV-1" source="6aQmox6azNYy8MR4txHE-85" target="6aQmox6azNYy8MR4txHE-89">
          <mxGeometry relative="1" as="geometry">
            <Array as="points">
              <mxPoint x="630" y="-220" />
              <mxPoint x="825" y="-220" />
            </Array>
          </mxGeometry>
        </mxCell>
        <mxCell id="6aQmox6azNYy8MR4txHE-94" style="edgeStyle=orthogonalEdgeStyle;rounded=0;orthogonalLoop=1;jettySize=auto;html=1;entryX=0.5;entryY=0;entryDx=0;entryDy=0;" edge="1" parent="WIyWlLk6GJQsqaUBKTNV-1" source="6aQmox6azNYy8MR4txHE-85" target="6aQmox6azNYy8MR4txHE-1">
          <mxGeometry relative="1" as="geometry" />
        </mxCell>
        <mxCell id="6aQmox6azNYy8MR4txHE-85" value="Ai confirmat contul?" style="rhombus;whiteSpace=wrap;html=1;shadow=0;fontFamily=Helvetica;fontSize=12;align=center;strokeWidth=1;spacing=6;spacingTop=-4;fillColor=#fff2cc;strokeColor=#d6b656;" vertex="1" parent="WIyWlLk6GJQsqaUBKTNV-1">
          <mxGeometry x="570" y="-355" width="120" height="90" as="geometry" />
        </mxCell>
        <mxCell id="6aQmox6azNYy8MR4txHE-87" value="Deschide Gmail" style="rounded=1;whiteSpace=wrap;html=1;fontSize=12;glass=0;strokeWidth=1;shadow=0;fillColor=#dae8fc;strokeColor=#6c8ebf;" vertex="1" parent="WIyWlLk6GJQsqaUBKTNV-1">
          <mxGeometry x="390" y="-162" width="150" height="40" as="geometry" />
        </mxCell>
        <mxCell id="6aQmox6azNYy8MR4txHE-88" value="Deschide Outlook" style="rounded=1;whiteSpace=wrap;html=1;fontSize=12;glass=0;strokeWidth=1;shadow=0;fillColor=#dae8fc;strokeColor=#6c8ebf;" vertex="1" parent="WIyWlLk6GJQsqaUBKTNV-1">
          <mxGeometry x="570" y="-162" width="150" height="40" as="geometry" />
        </mxCell>
        <mxCell id="6aQmox6azNYy8MR4txHE-89" value="Mail personal" style="rounded=1;whiteSpace=wrap;html=1;fontSize=12;glass=0;strokeWidth=1;shadow=0;fillColor=#dae8fc;strokeColor=#6c8ebf;" vertex="1" parent="WIyWlLk6GJQsqaUBKTNV-1">
          <mxGeometry x="750" y="-160" width="150" height="40" as="geometry" />
        </mxCell>
        <mxCell id="6aQmox6azNYy8MR4txHE-90" style="edgeStyle=orthogonalEdgeStyle;rounded=0;orthogonalLoop=1;jettySize=auto;html=1;entryX=0.437;entryY=-0.01;entryDx=0;entryDy=0;entryPerimeter=0;" edge="1" parent="WIyWlLk6GJQsqaUBKTNV-1" source="6aQmox6azNYy8MR4txHE-85" target="6aQmox6azNYy8MR4txHE-87">
          <mxGeometry relative="1" as="geometry">
            <Array as="points">
              <mxPoint x="630" y="-220" />
              <mxPoint x="456" y="-220" />
            </Array>
          </mxGeometry>
        </mxCell>
        <mxCell id="6aQmox6azNYy8MR4txHE-93" value="Nu" style="text;html=1;align=center;verticalAlign=middle;resizable=0;points=[];autosize=1;strokeColor=none;fillColor=none;" vertex="1" parent="WIyWlLk6GJQsqaUBKTNV-1">
          <mxGeometry x="630" y="-262" width="40" height="30" as="geometry" />
        </mxCell>
        <mxCell id="6aQmox6azNYy8MR4txHE-95" value="Da" style="text;html=1;align=center;verticalAlign=middle;resizable=0;points=[];autosize=1;strokeColor=none;fillColor=none;" vertex="1" parent="WIyWlLk6GJQsqaUBKTNV-1">
          <mxGeometry x="340" y="-262" width="40" height="30" as="geometry" />
        </mxCell>
      </root>
    </mxGraphModel>
  </diagram>
</mxfile>
